<svg xmlns="http://www.w3.org/2000/svg" viewBox="0 0 640 828" width="640" height="828" role="img" aria-label="Sample report page, redacted">
  <rect width="640" height="828" fill="#FFFFFF"/>
  <!-- header band -->
  <rect x="48" y="56" width="180" height="14" rx="2" fill="#0E1B2A"/>
  <rect x="48" y="78" width="120" height="9" rx="2" fill="#C8C5BF"/>
  <line x1="48" y1="104" x2="592" y2="104" stroke="#E0DDD7" stroke-width="1"/>

  <!-- Block 1 -->
  <rect x="48" y="130" width="200" height="12" rx="2" fill="#1C1C1C"/>
  <rect x="48" y="156" width="544" height="7" rx="2" fill="#E6E3DD"/>
  <rect x="48" y="170" width="510" height="7" rx="2" fill="#E6E3DD"/>
  <!-- redacted bars -->
  <rect x="48" y="192" width="150" height="10" rx="2" fill="#1C1C1C"/>
  <rect x="210" y="192" width="90" height="10" rx="2" fill="#C8C5BF"/>
  <rect x="48" y="210" width="120" height="10" rx="2" fill="#1C1C1C"/>
  <rect x="180" y="210" width="140" height="10" rx="2" fill="#C8C5BF"/>
  <!-- finding flagged in amber (what can go wrong) -->
  <rect x="48" y="232" width="220" height="10" rx="2" fill="#C17D11"/>
  <rect x="280" y="232" width="70" height="10" rx="2" fill="#E6E3DD"/>
  <!-- source citation line -->
  <rect x="48" y="252" width="320" height="6" rx="2" fill="#C8C5BF"/>

  <line x1="48" y1="284" x2="592" y2="284" stroke="#E0DDD7" stroke-width="1"/>

  <!-- Block 2 -->
  <rect x="48" y="308" width="180" height="12" rx="2" fill="#1C1C1C"/>
  <rect x="48" y="334" width="544" height="7" rx="2" fill="#E6E3DD"/>
  <rect x="48" y="348" width="490" height="7" rx="2" fill="#E6E3DD"/>
  <rect x="48" y="370" width="130" height="10" rx="2" fill="#1C1C1C"/>
  <rect x="190" y="370" width="110" height="10" rx="2" fill="#C8C5BF"/>
  <rect x="48" y="388" width="170" height="10" rx="2" fill="#1C1C1C"/>
  <rect x="48" y="410" width="300" height="6" rx="2" fill="#C8C5BF"/>

  <line x1="48" y1="442" x2="592" y2="442" stroke="#E0DDD7" stroke-width="1"/>

  <!-- Block 3 -->
  <rect x="48" y="466" width="210" height="12" rx="2" fill="#1C1C1C"/>
  <rect x="48" y="492" width="544" height="7" rx="2" fill="#E6E3DD"/>
  <rect x="48" y="506" width="470" height="7" rx="2" fill="#E6E3DD"/>
  <rect x="48" y="528" width="140" height="10" rx="2" fill="#1C1C1C"/>
  <rect x="200" y="528" width="80" height="10" rx="2" fill="#C8C5BF"/>
  <rect x="48" y="546" width="160" height="10" rx="2" fill="#1C1C1C"/>

  <!-- inset emergency box -->
  <rect x="48" y="580" width="544" height="90" rx="6" fill="#ECEAE4"/>
  <rect x="72" y="604" width="160" height="9" rx="2" fill="#1C1C1C"/>
  <rect x="72" y="626" width="400" height="6" rx="2" fill="#C8C5BF"/>
  <rect x="72" y="640" width="360" height="6" rx="2" fill="#C8C5BF"/>

  <!-- footer -->
  <line x1="48" y1="740" x2="592" y2="740" stroke="#E0DDD7" stroke-width="1"/>
  <rect x="48" y="758" width="120" height="6" rx="2" fill="#C8C5BF"/>
  <rect x="540" y="758" width="52" height="6" rx="2" fill="#C8C5BF"/>
</svg>
